solid OpenSCAD_Model
  facet normal -1 0 0
    outer loop
      vertex -35.8 -12.8 -2.5
      vertex -35.8 12.8 2.5
      vertex -35.8 12.8 -2.5
    endloop
  endfacet
  facet normal -1 -0 0
    outer loop
      vertex -35.8 12.8 2.5
      vertex -35.8 -12.8 -2.5
      vertex -35.8 -12.8 2.5
    endloop
  endfacet
  facet normal 0 0 1
    outer loop
      vertex 35.8 12.8 2.5
      vertex 35 12 2.5
      vertex 35.8 -12.8 2.5
    endloop
  endfacet
  facet normal 0 0 1
    outer loop
      vertex 35.8 12.8 2.5
      vertex -35 12 2.5
      vertex 35 12 2.5
    endloop
  endfacet
  facet normal 0 0 1
    outer loop
      vertex -35 12 2.5
      vertex -35.8 12.8 2.5
      vertex -35 -12 2.5
    endloop
  endfacet
  facet normal -0 0 1
    outer loop
      vertex -35.8 12.8 2.5
      vertex -35 12 2.5
      vertex 35.8 12.8 2.5
    endloop
  endfacet
  facet normal -0 0 1
    outer loop
      vertex 35 -12 2.5
      vertex 35.8 -12.8 2.5
      vertex 35 12 2.5
    endloop
  endfacet
  facet normal -0 0 1
    outer loop
      vertex -35 -12 2.5
      vertex 35.8 -12.8 2.5
      vertex 35 -12 2.5
    endloop
  endfacet
  facet normal 0 0 1
    outer loop
      vertex -35 -12 2.5
      vertex -35.8 -12.8 2.5
      vertex 35.8 -12.8 2.5
    endloop
  endfacet
  facet normal 0 0 1
    outer loop
      vertex -35.8 -12.8 2.5
      vertex -35 -12 2.5
      vertex -35.8 12.8 2.5
    endloop
  endfacet
  facet normal 1 -0 0
    outer loop
      vertex 35.8 -12.8 2.5
      vertex 35.8 12.8 -2.5
      vertex 35.8 12.8 2.5
    endloop
  endfacet
  facet normal 1 0 0
    outer loop
      vertex 35.8 12.8 -2.5
      vertex 35.8 -12.8 2.5
      vertex 35.8 -12.8 -2.5
    endloop
  endfacet
  facet normal 0 1 -0
    outer loop
      vertex 35.8 12.8 -2.5
      vertex -35.8 12.8 2.5
      vertex 35.8 12.8 2.5
    endloop
  endfacet
  facet normal 0 1 0
    outer loop
      vertex -35.8 12.8 2.5
      vertex 35.8 12.8 -2.5
      vertex -35.8 12.8 -2.5
    endloop
  endfacet
  facet normal 0 0 -1
    outer loop
      vertex 35.8 -12.8 -2.5
      vertex 3 0 -2.5
      vertex 35.8 12.8 -2.5
    endloop
  endfacet
  facet normal 0 0 -1
    outer loop
      vertex 35.8 -12.8 -2.5
      vertex 2.90575 -0.746069 -2.5
      vertex 3 0 -2.5
    endloop
  endfacet
  facet normal 0 0 -1
    outer loop
      vertex 35.8 -12.8 -2.5
      vertex 2.62892 -1.44526 -2.5
      vertex 2.90575 -0.746069 -2.5
    endloop
  endfacet
  facet normal 0 0 -1
    outer loop
      vertex 35.8 -12.8 -2.5
      vertex 2.18691 -2.05364 -2.5
      vertex 2.62892 -1.44526 -2.5
    endloop
  endfacet
  facet normal 0 0 -1
    outer loop
      vertex 35.8 -12.8 -2.5
      vertex 1.60748 -2.53298 -2.5
      vertex 2.18691 -2.05364 -2.5
    endloop
  endfacet
  facet normal 0 0 -1
    outer loop
      vertex 35.8 -12.8 -2.5
      vertex 0.927051 -2.85317 -2.5
      vertex 1.60748 -2.53298 -2.5
    endloop
  endfacet
  facet normal 0 0 -1
    outer loop
      vertex 35.8 -12.8 -2.5
      vertex 0.188371 -2.99408 -2.5
      vertex 0.927051 -2.85317 -2.5
    endloop
  endfacet
  facet normal 0 0 -1
    outer loop
      vertex -35.8 -12.8 -2.5
      vertex 0.188371 -2.99408 -2.5
      vertex 35.8 -12.8 -2.5
    endloop
  endfacet
  facet normal -0 0 -1
    outer loop
      vertex -2.97634 -0.375999 -2.5
      vertex -35.8 -12.8 -2.5
      vertex -2.97634 0.375999 -2.5
    endloop
  endfacet
  facet normal -0 0 -1
    outer loop
      vertex -2.78933 -1.10437 -2.5
      vertex -35.8 -12.8 -2.5
      vertex -2.97634 -0.375999 -2.5
    endloop
  endfacet
  facet normal -0 0 -1
    outer loop
      vertex -2.42705 -1.76336 -2.5
      vertex -35.8 -12.8 -2.5
      vertex -2.78933 -1.10437 -2.5
    endloop
  endfacet
  facet normal -0 0 -1
    outer loop
      vertex -1.91227 -2.31154 -2.5
      vertex -35.8 -12.8 -2.5
      vertex -2.42705 -1.76336 -2.5
    endloop
  endfacet
  facet normal -0 0 -1
    outer loop
      vertex -1.27734 -2.71448 -2.5
      vertex -35.8 -12.8 -2.5
      vertex -1.91227 -2.31154 -2.5
    endloop
  endfacet
  facet normal -0 0 -1
    outer loop
      vertex -0.562143 -2.94686 -2.5
      vertex -35.8 -12.8 -2.5
      vertex -1.27734 -2.71448 -2.5
    endloop
  endfacet
  facet normal -0 0 -1
    outer loop
      vertex 0.188371 -2.99408 -2.5
      vertex -35.8 -12.8 -2.5
      vertex -0.562143 -2.94686 -2.5
    endloop
  endfacet
  facet normal 0 0 -1
    outer loop
      vertex 2.90575 0.746069 -2.5
      vertex 35.8 12.8 -2.5
      vertex 3 0 -2.5
    endloop
  endfacet
  facet normal 0 0 -1
    outer loop
      vertex 2.62892 1.44526 -2.5
      vertex 35.8 12.8 -2.5
      vertex 2.90575 0.746069 -2.5
    endloop
  endfacet
  facet normal 0 0 -1
    outer loop
      vertex 2.18691 2.05364 -2.5
      vertex 35.8 12.8 -2.5
      vertex 2.62892 1.44526 -2.5
    endloop
  endfacet
  facet normal 0 0 -1
    outer loop
      vertex 1.60748 2.53298 -2.5
      vertex 35.8 12.8 -2.5
      vertex 2.18691 2.05364 -2.5
    endloop
  endfacet
  facet normal 0 0 -1
    outer loop
      vertex 0.927051 2.85317 -2.5
      vertex 35.8 12.8 -2.5
      vertex 1.60748 2.53298 -2.5
    endloop
  endfacet
  facet normal 0 0 -1
    outer loop
      vertex 0.188371 2.99408 -2.5
      vertex 35.8 12.8 -2.5
      vertex 0.927051 2.85317 -2.5
    endloop
  endfacet
  facet normal 0 0 -1
    outer loop
      vertex -35.8 12.8 -2.5
      vertex 0.188371 2.99408 -2.5
      vertex -0.562143 2.94686 -2.5
    endloop
  endfacet
  facet normal 0 0 -1
    outer loop
      vertex -35.8 12.8 -2.5
      vertex -2.97634 0.375999 -2.5
      vertex -35.8 -12.8 -2.5
    endloop
  endfacet
  facet normal 0 0 -1
    outer loop
      vertex -2.97634 0.375999 -2.5
      vertex -35.8 12.8 -2.5
      vertex -2.78933 1.10437 -2.5
    endloop
  endfacet
  facet normal 0 0 -1
    outer loop
      vertex -2.78933 1.10437 -2.5
      vertex -35.8 12.8 -2.5
      vertex -2.42705 1.76336 -2.5
    endloop
  endfacet
  facet normal 0 0 -1
    outer loop
      vertex -2.42705 1.76336 -2.5
      vertex -35.8 12.8 -2.5
      vertex -1.91227 2.31154 -2.5
    endloop
  endfacet
  facet normal 0 0 -1
    outer loop
      vertex 0.188371 2.99408 -2.5
      vertex -35.8 12.8 -2.5
      vertex 35.8 12.8 -2.5
    endloop
  endfacet
  facet normal 0 0 -1
    outer loop
      vertex -1.27734 2.71448 -2.5
      vertex -35.8 12.8 -2.5
      vertex -0.562143 2.94686 -2.5
    endloop
  endfacet
  facet normal 0 0 -1
    outer loop
      vertex -1.91227 2.31154 -2.5
      vertex -35.8 12.8 -2.5
      vertex -1.27734 2.71448 -2.5
    endloop
  endfacet
  facet normal 0 -1 0
    outer loop
      vertex -35.8 -12.8 -2.5
      vertex 35.8 -12.8 2.5
      vertex -35.8 -12.8 2.5
    endloop
  endfacet
  facet normal 0 -1 -0
    outer loop
      vertex 35.8 -12.8 2.5
      vertex -35.8 -12.8 -2.5
      vertex 35.8 -12.8 -2.5
    endloop
  endfacet
  facet normal 1 -0 0
    outer loop
      vertex -35 -12 2.5
      vertex -35 12 -1.7
      vertex -35 12 2.5
    endloop
  endfacet
  facet normal 1 0 0
    outer loop
      vertex -35 12 -1.7
      vertex -35 -12 2.5
      vertex -35 -12 -1.7
    endloop
  endfacet
  facet normal -1 0 0
    outer loop
      vertex 35 -12 -1.7
      vertex 35 12 2.5
      vertex 35 12 -1.7
    endloop
  endfacet
  facet normal -1 -0 0
    outer loop
      vertex 35 12 2.5
      vertex 35 -12 -1.7
      vertex 35 -12 2.5
    endloop
  endfacet
  facet normal 0 0 1
    outer loop
      vertex 35 12 -1.7
      vertex 3 0 -1.7
      vertex 35 -12 -1.7
    endloop
  endfacet
  facet normal 0 0 1
    outer loop
      vertex 35 12 -1.7
      vertex 2.90575 0.746069 -1.7
      vertex 3 0 -1.7
    endloop
  endfacet
  facet normal 0 0 1
    outer loop
      vertex 35 12 -1.7
      vertex 2.62892 1.44526 -1.7
      vertex 2.90575 0.746069 -1.7
    endloop
  endfacet
  facet normal 0 0 1
    outer loop
      vertex 35 12 -1.7
      vertex 2.18691 2.05364 -1.7
      vertex 2.62892 1.44526 -1.7
    endloop
  endfacet
  facet normal 0 0 1
    outer loop
      vertex 35 12 -1.7
      vertex 1.60748 2.53298 -1.7
      vertex 2.18691 2.05364 -1.7
    endloop
  endfacet
  facet normal 0 0 1
    outer loop
      vertex 35 12 -1.7
      vertex 0.927051 2.85317 -1.7
      vertex 1.60748 2.53298 -1.7
    endloop
  endfacet
  facet normal 0 0 1
    outer loop
      vertex 35 12 -1.7
      vertex 0.188371 2.99408 -1.7
      vertex 0.927051 2.85317 -1.7
    endloop
  endfacet
  facet normal -0 0 1
    outer loop
      vertex -35 12 -1.7
      vertex 0.188371 2.99408 -1.7
      vertex 35 12 -1.7
    endloop
  endfacet
  facet normal 0 0 1
    outer loop
      vertex -2.97634 0.375999 -1.7
      vertex -35 12 -1.7
      vertex -2.97634 -0.375999 -1.7
    endloop
  endfacet
  facet normal 0 0 1
    outer loop
      vertex -2.78933 1.10437 -1.7
      vertex -35 12 -1.7
      vertex -2.97634 0.375999 -1.7
    endloop
  endfacet
  facet normal 0 0 1
    outer loop
      vertex -2.42705 1.76336 -1.7
      vertex -35 12 -1.7
      vertex -2.78933 1.10437 -1.7
    endloop
  endfacet
  facet normal 0 0 1
    outer loop
      vertex -1.91227 2.31154 -1.7
      vertex -35 12 -1.7
      vertex -2.42705 1.76336 -1.7
    endloop
  endfacet
  facet normal 0 0 1
    outer loop
      vertex -1.27734 2.71448 -1.7
      vertex -35 12 -1.7
      vertex -1.91227 2.31154 -1.7
    endloop
  endfacet
  facet normal 0 0 1
    outer loop
      vertex -0.562143 2.94686 -1.7
      vertex -35 12 -1.7
      vertex -1.27734 2.71448 -1.7
    endloop
  endfacet
  facet normal 0 0 1
    outer loop
      vertex 0.188371 2.99408 -1.7
      vertex -35 12 -1.7
      vertex -0.562143 2.94686 -1.7
    endloop
  endfacet
  facet normal -0 0 1
    outer loop
      vertex 2.90575 -0.746069 -1.7
      vertex 35 -12 -1.7
      vertex 3 0 -1.7
    endloop
  endfacet
  facet normal -0 0 1
    outer loop
      vertex 2.62892 -1.44526 -1.7
      vertex 35 -12 -1.7
      vertex 2.90575 -0.746069 -1.7
    endloop
  endfacet
  facet normal -0 0 1
    outer loop
      vertex 2.18691 -2.05364 -1.7
      vertex 35 -12 -1.7
      vertex 2.62892 -1.44526 -1.7
    endloop
  endfacet
  facet normal -0 0 1
    outer loop
      vertex 1.60748 -2.53298 -1.7
      vertex 35 -12 -1.7
      vertex 2.18691 -2.05364 -1.7
    endloop
  endfacet
  facet normal -0 0 1
    outer loop
      vertex 0.927051 -2.85317 -1.7
      vertex 35 -12 -1.7
      vertex 1.60748 -2.53298 -1.7
    endloop
  endfacet
  facet normal -0 0 1
    outer loop
      vertex 0.188371 -2.99408 -1.7
      vertex 35 -12 -1.7
      vertex 0.927051 -2.85317 -1.7
    endloop
  endfacet
  facet normal 0 0 1
    outer loop
      vertex -35 -12 -1.7
      vertex 0.188371 -2.99408 -1.7
      vertex -0.562143 -2.94686 -1.7
    endloop
  endfacet
  facet normal 0 0 1
    outer loop
      vertex -35 -12 -1.7
      vertex -2.97634 -0.375999 -1.7
      vertex -35 12 -1.7
    endloop
  endfacet
  facet normal 0 0 1
    outer loop
      vertex -2.97634 -0.375999 -1.7
      vertex -35 -12 -1.7
      vertex -2.78933 -1.10437 -1.7
    endloop
  endfacet
  facet normal 0 0 1
    outer loop
      vertex -2.78933 -1.10437 -1.7
      vertex -35 -12 -1.7
      vertex -2.42705 -1.76336 -1.7
    endloop
  endfacet
  facet normal 0 0 1
    outer loop
      vertex -2.42705 -1.76336 -1.7
      vertex -35 -12 -1.7
      vertex -1.91227 -2.31154 -1.7
    endloop
  endfacet
  facet normal 0 0 1
    outer loop
      vertex 0.188371 -2.99408 -1.7
      vertex -35 -12 -1.7
      vertex 35 -12 -1.7
    endloop
  endfacet
  facet normal 0 0 1
    outer loop
      vertex -1.27734 -2.71448 -1.7
      vertex -35 -12 -1.7
      vertex -0.562143 -2.94686 -1.7
    endloop
  endfacet
  facet normal 0 0 1
    outer loop
      vertex -1.91227 -2.31154 -1.7
      vertex -35 -12 -1.7
      vertex -1.27734 -2.71448 -1.7
    endloop
  endfacet
  facet normal 0 1 -0
    outer loop
      vertex 35 -12 -1.7
      vertex -35 -12 2.5
      vertex 35 -12 2.5
    endloop
  endfacet
  facet normal 0 1 0
    outer loop
      vertex -35 -12 2.5
      vertex 35 -12 -1.7
      vertex -35 -12 -1.7
    endloop
  endfacet
  facet normal 0 -1 0
    outer loop
      vertex -35 12 -1.7
      vertex 35 12 2.5
      vertex -35 12 2.5
    endloop
  endfacet
  facet normal 0 -1 -0
    outer loop
      vertex 35 12 2.5
      vertex -35 12 -1.7
      vertex 35 12 -1.7
    endloop
  endfacet
  facet normal -0.992115 -0.125334 0
    outer loop
      vertex 3 0 -2.5
      vertex 2.90575 0.746069 -1.7
      vertex 2.90575 0.746069 -2.5
    endloop
  endfacet
  facet normal -0.992115 -0.125334 0
    outer loop
      vertex 2.90575 0.746069 -1.7
      vertex 3 0 -2.5
      vertex 3 0 -1.7
    endloop
  endfacet
  facet normal 1 -0 0
    outer loop
      vertex -2.97634 -0.375999 -1.7
      vertex -2.97634 0.375999 -2.5
      vertex -2.97634 0.375999 -1.7
    endloop
  endfacet
  facet normal 1 0 0
    outer loop
      vertex -2.97634 0.375999 -2.5
      vertex -2.97634 -0.375999 -1.7
      vertex -2.97634 -0.375999 -2.5
    endloop
  endfacet
  facet normal -0.809017 -0.587785 0
    outer loop
      vertex 2.62892 1.44526 -2.5
      vertex 2.18691 2.05364 -1.7
      vertex 2.18691 2.05364 -2.5
    endloop
  endfacet
  facet normal -0.809017 -0.587785 0
    outer loop
      vertex 2.18691 2.05364 -1.7
      vertex 2.62892 1.44526 -2.5
      vertex 2.62892 1.44526 -1.7
    endloop
  endfacet
  facet normal -0.929776 -0.368125 0
    outer loop
      vertex 2.90575 0.746069 -2.5
      vertex 2.62892 1.44526 -1.7
      vertex 2.62892 1.44526 -2.5
    endloop
  endfacet
  facet normal -0.929776 -0.368125 0
    outer loop
      vertex 2.62892 1.44526 -1.7
      vertex 2.90575 0.746069 -2.5
      vertex 2.90575 0.746069 -1.7
    endloop
  endfacet
  facet normal -0.42578 -0.904827 0
    outer loop
      vertex 0.927051 2.85317 -2.5
      vertex 1.60748 2.53298 -1.7
      vertex 0.927051 2.85317 -1.7
    endloop
  endfacet
  facet normal -0.42578 -0.904827 -0
    outer loop
      vertex 1.60748 2.53298 -1.7
      vertex 0.927051 2.85317 -2.5
      vertex 1.60748 2.53298 -2.5
    endloop
  endfacet
  facet normal 0.535826 -0.844328 0
    outer loop
      vertex -1.91227 2.31154 -2.5
      vertex -1.27734 2.71448 -1.7
      vertex -1.91227 2.31154 -1.7
    endloop
  endfacet
  facet normal 0.535826 -0.844328 0
    outer loop
      vertex -1.27734 2.71448 -1.7
      vertex -1.91227 2.31154 -2.5
      vertex -1.27734 2.71448 -2.5
    endloop
  endfacet
  facet normal 0.968583 -0.24869 0
    outer loop
      vertex -2.97634 0.375999 -1.7
      vertex -2.78933 1.10437 -2.5
      vertex -2.78933 1.10437 -1.7
    endloop
  endfacet
  facet normal 0.968583 -0.24869 0
    outer loop
      vertex -2.78933 1.10437 -2.5
      vertex -2.97634 0.375999 -1.7
      vertex -2.97634 0.375999 -2.5
    endloop
  endfacet
  facet normal 0.728969 -0.684547 0
    outer loop
      vertex -2.42705 1.76336 -1.7
      vertex -1.91227 2.31154 -2.5
      vertex -1.91227 2.31154 -1.7
    endloop
  endfacet
  facet normal 0.728969 -0.684547 0
    outer loop
      vertex -1.91227 2.31154 -2.5
      vertex -2.42705 1.76336 -1.7
      vertex -2.42705 1.76336 -2.5
    endloop
  endfacet
  facet normal -0.42578 0.904827 0
    outer loop
      vertex 1.60748 -2.53298 -2.5
      vertex 0.927051 -2.85317 -1.7
      vertex 1.60748 -2.53298 -1.7
    endloop
  endfacet
  facet normal -0.42578 0.904827 0
    outer loop
      vertex 0.927051 -2.85317 -1.7
      vertex 1.60748 -2.53298 -2.5
      vertex 0.927051 -2.85317 -2.5
    endloop
  endfacet
  facet normal -0.637424 -0.770513 0
    outer loop
      vertex 1.60748 2.53298 -2.5
      vertex 2.18691 2.05364 -1.7
      vertex 1.60748 2.53298 -1.7
    endloop
  endfacet
  facet normal -0.637424 -0.770513 -0
    outer loop
      vertex 2.18691 2.05364 -1.7
      vertex 1.60748 2.53298 -2.5
      vertex 2.18691 2.05364 -2.5
    endloop
  endfacet
  facet normal 0.0627905 -0.998027 0
    outer loop
      vertex -0.562143 2.94686 -2.5
      vertex 0.188371 2.99408 -1.7
      vertex -0.562143 2.94686 -1.7
    endloop
  endfacet
  facet normal 0.0627905 -0.998027 0
    outer loop
      vertex 0.188371 2.99408 -1.7
      vertex -0.562143 2.94686 -2.5
      vertex 0.188371 2.99408 -2.5
    endloop
  endfacet
  facet normal 0.876307 -0.481753 0
    outer loop
      vertex -2.78933 1.10437 -1.7
      vertex -2.42705 1.76336 -2.5
      vertex -2.42705 1.76336 -1.7
    endloop
  endfacet
  facet normal 0.876307 -0.481753 0
    outer loop
      vertex -2.42705 1.76336 -2.5
      vertex -2.78933 1.10437 -1.7
      vertex -2.78933 1.10437 -2.5
    endloop
  endfacet
  facet normal 0.309017 -0.951056 0
    outer loop
      vertex -1.27734 2.71448 -2.5
      vertex -0.562143 2.94686 -1.7
      vertex -1.27734 2.71448 -1.7
    endloop
  endfacet
  facet normal 0.309017 -0.951056 0
    outer loop
      vertex -0.562143 2.94686 -1.7
      vertex -1.27734 2.71448 -2.5
      vertex -0.562143 2.94686 -2.5
    endloop
  endfacet
  facet normal -0.929776 0.368125 0
    outer loop
      vertex 2.62892 -1.44526 -2.5
      vertex 2.90575 -0.746069 -1.7
      vertex 2.90575 -0.746069 -2.5
    endloop
  endfacet
  facet normal -0.929776 0.368125 0
    outer loop
      vertex 2.90575 -0.746069 -1.7
      vertex 2.62892 -1.44526 -2.5
      vertex 2.62892 -1.44526 -1.7
    endloop
  endfacet
  facet normal 0.535826 0.844328 -0
    outer loop
      vertex -1.27734 -2.71448 -2.5
      vertex -1.91227 -2.31154 -1.7
      vertex -1.27734 -2.71448 -1.7
    endloop
  endfacet
  facet normal 0.535826 0.844328 0
    outer loop
      vertex -1.91227 -2.31154 -1.7
      vertex -1.27734 -2.71448 -2.5
      vertex -1.91227 -2.31154 -2.5
    endloop
  endfacet
  facet normal 0.728969 0.684547 0
    outer loop
      vertex -1.91227 -2.31154 -1.7
      vertex -2.42705 -1.76336 -2.5
      vertex -2.42705 -1.76336 -1.7
    endloop
  endfacet
  facet normal 0.728969 0.684547 0
    outer loop
      vertex -2.42705 -1.76336 -2.5
      vertex -1.91227 -2.31154 -1.7
      vertex -1.91227 -2.31154 -2.5
    endloop
  endfacet
  facet normal -0.809017 0.587785 0
    outer loop
      vertex 2.18691 -2.05364 -2.5
      vertex 2.62892 -1.44526 -1.7
      vertex 2.62892 -1.44526 -2.5
    endloop
  endfacet
  facet normal -0.809017 0.587785 0
    outer loop
      vertex 2.62892 -1.44526 -1.7
      vertex 2.18691 -2.05364 -2.5
      vertex 2.18691 -2.05364 -1.7
    endloop
  endfacet
  facet normal -0.992115 0.125334 0
    outer loop
      vertex 2.90575 -0.746069 -2.5
      vertex 3 0 -1.7
      vertex 3 0 -2.5
    endloop
  endfacet
  facet normal -0.992115 0.125334 0
    outer loop
      vertex 3 0 -1.7
      vertex 2.90575 -0.746069 -2.5
      vertex 2.90575 -0.746069 -1.7
    endloop
  endfacet
  facet normal -0.187381 -0.982287 0
    outer loop
      vertex 0.188371 2.99408 -2.5
      vertex 0.927051 2.85317 -1.7
      vertex 0.188371 2.99408 -1.7
    endloop
  endfacet
  facet normal -0.187381 -0.982287 -0
    outer loop
      vertex 0.927051 2.85317 -1.7
      vertex 0.188371 2.99408 -2.5
      vertex 0.927051 2.85317 -2.5
    endloop
  endfacet
  facet normal 0.968583 0.24869 0
    outer loop
      vertex -2.78933 -1.10437 -1.7
      vertex -2.97634 -0.375999 -2.5
      vertex -2.97634 -0.375999 -1.7
    endloop
  endfacet
  facet normal 0.968583 0.24869 0
    outer loop
      vertex -2.97634 -0.375999 -2.5
      vertex -2.78933 -1.10437 -1.7
      vertex -2.78933 -1.10437 -2.5
    endloop
  endfacet
  facet normal -0.637424 0.770513 0
    outer loop
      vertex 2.18691 -2.05364 -2.5
      vertex 1.60748 -2.53298 -1.7
      vertex 2.18691 -2.05364 -1.7
    endloop
  endfacet
  facet normal -0.637424 0.770513 0
    outer loop
      vertex 1.60748 -2.53298 -1.7
      vertex 2.18691 -2.05364 -2.5
      vertex 1.60748 -2.53298 -2.5
    endloop
  endfacet
  facet normal -0.187381 0.982287 0
    outer loop
      vertex 0.927051 -2.85317 -2.5
      vertex 0.188371 -2.99408 -1.7
      vertex 0.927051 -2.85317 -1.7
    endloop
  endfacet
  facet normal -0.187381 0.982287 0
    outer loop
      vertex 0.188371 -2.99408 -1.7
      vertex 0.927051 -2.85317 -2.5
      vertex 0.188371 -2.99408 -2.5
    endloop
  endfacet
  facet normal 0.0627905 0.998027 -0
    outer loop
      vertex 0.188371 -2.99408 -2.5
      vertex -0.562143 -2.94686 -1.7
      vertex 0.188371 -2.99408 -1.7
    endloop
  endfacet
  facet normal 0.0627905 0.998027 0
    outer loop
      vertex -0.562143 -2.94686 -1.7
      vertex 0.188371 -2.99408 -2.5
      vertex -0.562143 -2.94686 -2.5
    endloop
  endfacet
  facet normal 0.876307 0.481753 0
    outer loop
      vertex -2.42705 -1.76336 -1.7
      vertex -2.78933 -1.10437 -2.5
      vertex -2.78933 -1.10437 -1.7
    endloop
  endfacet
  facet normal 0.876307 0.481753 0
    outer loop
      vertex -2.78933 -1.10437 -2.5
      vertex -2.42705 -1.76336 -1.7
      vertex -2.42705 -1.76336 -2.5
    endloop
  endfacet
  facet normal 0.309017 0.951056 -0
    outer loop
      vertex -0.562143 -2.94686 -2.5
      vertex -1.27734 -2.71448 -1.7
      vertex -0.562143 -2.94686 -1.7
    endloop
  endfacet
  facet normal 0.309017 0.951056 0
    outer loop
      vertex -1.27734 -2.71448 -1.7
      vertex -0.562143 -2.94686 -2.5
      vertex -1.27734 -2.71448 -2.5
    endloop
  endfacet
endsolid OpenSCAD_Model
